<?xml version="1.0" encoding="UTF-8"?>
<svg id="logosandtypes_com" data-name="logosandtypes com" xmlns="http://www.w3.org/2000/svg" xmlns:xlink="http://www.w3.org/1999/xlink" viewBox="0 0 150 150">
  <defs>
    <style>
      .cls-1 {
        fill: url(#linear-gradient-2);
      }

      .cls-2 {
        fill: none;
      }

      .cls-3 {
        fill: url(#linear-gradient);
      }
    </style>
    <linearGradient id="linear-gradient" x1="93.5" y1="18.46" x2="25.15" y2="127.06" gradientTransform="translate(0 149.89) scale(1 -1)" gradientUnits="userSpaceOnUse">
      <stop offset="0" stop-color="#9d0b6d"/>
      <stop offset="0" stop-color="#9d0a6d"/>
      <stop offset=".39" stop-color="#d81b7e"/>
      <stop offset=".5" stop-color="#dc1f76"/>
      <stop offset=".78" stop-color="#e42965"/>
      <stop offset="1" stop-color="#e72c5f"/>
    </linearGradient>
    <linearGradient id="linear-gradient-2" x1="135.07" y1="117.22" x2="79.83" y2="68.54" xlink:href="#linear-gradient"/>
  </defs>
  <path class="cls-2" d="M0,0H150V150H0V0Z"/>
  <path class="cls-3" d="M43.27,18.18c-6.23,0-12.35,1.75-17.63,5.06-15.61,9.82-20.37,30.41-10.64,46.08l31.75,50.8c9.79,15.66,30.42,20.42,46.08,10.64,15.66-9.79,20.42-30.42,10.64-46.08h0l-31.74-50.8c-6.14-9.79-16.89-15.72-28.44-15.7h0"/>
  <path class="cls-1" d="M79.72,32.06l30.31,48.52c3.62,5.78,5.74,12.37,6.17,19.18l19.03-30.44c9.72-15.67,4.97-36.26-10.64-46.08-5.29-3.31-11.4-5.06-17.64-5.06-10.78-.02-20.92,5.15-27.23,13.88"/>
</svg>